<?xml version="1.0" standalone="no"?>
<!DOCTYPE svg PUBLIC "-//W3C//DTD SVG 20010904//EN"
 "http://www.w3.org/TR/2001/REC-SVG-20010904/DTD/svg10.dtd">
<svg version="1.0" xmlns="http://www.w3.org/2000/svg"
 width="983.000000pt" height="983.000000pt" viewBox="0 0 983.000000 983.000000"
 preserveAspectRatio="xMidYMid meet">
<metadata>
Created by potrace 1.11, written by Peter Selinger 2001-2013
</metadata>
<g transform="translate(0.000000,983.000000) scale(0.100000,-0.100000)"
fill="#000000" stroke="none">
<path d="M4566 9822 c-3 -5 -20 -8 -38 -7 -18 1 -39 -2 -45 -8 -7 -5 -13 -5
-13 0 0 5 -9 9 -20 9 -11 0 -20 -4 -20 -8 0 -4 -9 -5 -20 -3 -11 2 -20 1 -20
-3 0 -4 -20 -7 -44 -7 -28 0 -42 3 -38 10 3 5 -4 1 -16 -9 -13 -11 -22 -14
-22 -7 0 8 -6 9 -17 3 -10 -5 -24 -7 -32 -4 -9 3 -11 0 -6 -8 5 -8 1 -11 -11
-9 -11 2 -25 0 -31 -4 -8 -5 -13 -3 -13 4 0 10 -3 10 -11 2 -6 -6 -18 -9 -25
-6 -8 3 -14 0 -14 -6 0 -6 -5 -11 -11 -11 -5 0 -8 4 -4 9 3 6 -6 6 -24 1 -16
-4 -32 -6 -35 -2 -3 3 -6 0 -6 -7 0 -7 -6 -11 -12 -8 -7 2 -25 -2 -40 -10 -16
-7 -28 -10 -28 -5 0 5 -7 9 -15 9 -8 0 -12 -4 -10 -7 4 -7 -20 -12 -90 -22
-11 -2 -25 -10 -32 -18 -9 -10 -12 -11 -13 -2 0 16 -15 15 -33 -3 -12 -11 -17
-12 -20 -2 -4 9 -6 9 -6 0 -1 -7 -7 -10 -15 -7 -8 3 -17 0 -21 -5 -3 -6 -11
-9 -16 -6 -5 4 -9 3 -9 -2 0 -4 -11 -9 -25 -10 -45 -4 -55 -6 -55 -14 0 -4 -9
-5 -20 -2 -12 3 -20 0 -20 -7 0 -7 -7 -10 -16 -6 -10 4 -13 2 -8 -6 5 -8 2 -9
-9 -5 -9 3 -19 2 -22 -3 -3 -5 -12 -7 -20 -3 -8 3 -15 1 -15 -5 0 -5 -7 -13
-16 -16 -10 -4 -13 -2 -8 7 5 8 2 7 -9 -2 -10 -8 -20 -11 -24 -8 -3 4 -12 -1
-19 -11 -11 -14 -13 -14 -14 -2 0 9 -3 11 -8 5 -7 -11 -62 -34 -99 -42 -13 -3
-23 -10 -23 -15 0 -5 -4 -7 -9 -3 -5 3 -13 0 -16 -6 -4 -5 -13 -8 -21 -5 -8 3
-14 1 -14 -5 0 -6 -4 -8 -9 -4 -5 3 -12 1 -16 -4 -3 -6 -13 -7 -22 -4 -10 4
-14 2 -10 -4 8 -12 -20 -26 -34 -17 -5 3 -9 0 -9 -7 0 -7 -8 -9 -21 -6 -12 3
-18 3 -15 0 9 -9 -27 -32 -50 -33 -12 0 -24 -7 -28 -15 -3 -8 -12 -12 -19 -9
-8 3 -21 -1 -28 -9 -15 -14 -18 -16 -49 -24 -11 -3 -18 -8 -16 -12 2 -3 -7 -7
-21 -8 -14 0 -29 -7 -34 -15 -5 -7 -9 -9 -9 -4 0 5 -9 1 -20 -9 -11 -10 -20
-14 -20 -9 0 5 -5 1 -11 -9 -6 -9 -14 -15 -20 -12 -5 4 -9 1 -9 -4 0 -6 -7
-11 -15 -11 -8 0 -15 -4 -15 -10 0 -5 -6 -7 -13 -4 -7 2 -24 -4 -36 -15 -13
-12 -28 -18 -32 -15 -5 3 -9 0 -9 -6 0 -6 -4 -8 -10 -5 -5 3 -10 2 -10 -4 0
-5 -9 -13 -20 -16 -11 -4 -18 -10 -15 -15 3 -4 -2 -11 -11 -14 -8 -3 -12 -2
-9 4 3 5 -1 7 -9 4 -8 -3 -17 -12 -20 -20 -3 -9 -10 -12 -16 -9 -5 3 -10 1
-10 -4 0 -6 -6 -11 -13 -11 -8 0 -22 -9 -32 -20 -10 -11 -22 -17 -26 -14 -5 3
-9 0 -9 -6 0 -6 -4 -9 -9 -5 -6 3 -14 -3 -20 -12 -6 -10 -11 -14 -11 -10 0 4
-12 -4 -27 -18 -15 -14 -35 -25 -45 -25 -9 0 -21 -6 -25 -13 -4 -8 -21 -22
-38 -33 -16 -10 -35 -26 -42 -34 -7 -8 -13 -11 -13 -6 0 5 -9 -1 -20 -14 -11
-13 -20 -19 -20 -14 0 5 -5 1 -11 -9 -6 -9 -14 -15 -19 -12 -4 3 -11 -2 -14
-11 -3 -8 -10 -12 -16 -9 -5 3 -10 -1 -10 -9 0 -9 -6 -16 -12 -16 -7 0 -27
-13 -44 -30 -18 -16 -35 -26 -38 -23 -3 4 -6 -1 -6 -10 0 -9 -5 -17 -11 -17
-7 0 -22 -11 -35 -26 -13 -14 -24 -21 -24 -17 0 4 -4 3 -8 -2 -4 -6 -22 -23
-40 -38 -19 -15 -30 -27 -26 -27 4 0 -12 -14 -34 -30 -23 -17 -42 -35 -42 -41
0 -5 -5 -7 -11 -4 -6 4 -13 -2 -16 -14 -3 -11 -9 -18 -14 -15 -5 3 -9 0 -9 -6
0 -6 -4 -9 -9 -6 -9 6 -26 -22 -22 -37 1 -5 -2 -6 -7 -3 -5 3 -19 -6 -30 -19
-12 -14 -27 -25 -33 -25 -5 0 -8 -4 -4 -9 3 -5 -4 -13 -16 -16 -11 -4 -18 -9
-15 -13 4 -3 -6 -14 -21 -24 -16 -10 -24 -18 -19 -18 5 0 -1 -9 -14 -20 -13
-11 -27 -20 -32 -20 -5 0 -6 -5 -3 -10 3 -6 -1 -13 -9 -16 -9 -3 -16 -13 -16
-22 0 -8 -3 -13 -6 -9 -10 10 -66 -61 -58 -74 5 -8 3 -9 -5 -4 -13 8 -74 -49
-63 -59 2 -3 -3 -8 -12 -12 -9 -3 -16 -13 -16 -21 0 -8 -4 -11 -10 -8 -5 3
-10 -1 -10 -10 0 -8 -10 -20 -22 -25 -13 -5 -20 -9 -15 -9 8 -1 -92 -134 -105
-139 -4 -2 -8 -10 -8 -17 0 -7 -7 -16 -16 -19 -8 -3 -12 -10 -9 -16 3 -5 -1
-10 -9 -10 -9 0 -13 -6 -10 -14 3 -9 -3 -20 -15 -28 -12 -7 -21 -18 -21 -25 0
-6 -10 -19 -22 -27 -12 -9 -19 -16 -14 -16 4 0 -2 -12 -13 -26 -12 -15 -21
-34 -21 -43 0 -14 -2 -14 -10 -1 -8 12 -10 11 -10 -7 0 -13 -4 -23 -10 -23 -5
0 -10 -7 -10 -15 0 -8 -5 -15 -11 -15 -5 0 -7 -4 -4 -10 3 -5 1 -10 -5 -10 -6
0 -9 -4 -6 -9 3 -5 -1 -12 -10 -15 -8 -3 -13 -10 -10 -15 3 -5 -1 -12 -10 -15
-8 -3 -12 -10 -9 -16 3 -5 2 -10 -4 -10 -6 0 -13 -11 -17 -25 -3 -14 -10 -25
-15 -25 -5 0 -9 -9 -9 -20 0 -11 -7 -23 -15 -26 -8 -4 -15 -12 -15 -20 0 -8
-5 -14 -11 -14 -5 0 -7 -4 -4 -10 3 -5 1 -10 -5 -10 -6 0 -8 -4 -5 -10 3 -5 1
-10 -5 -10 -6 0 -9 -4 -5 -9 3 -5 0 -13 -6 -17 -6 -3 -20 -26 -31 -50 -10 -24
-23 -44 -28 -44 -5 0 -7 -7 -4 -15 4 -8 1 -15 -5 -15 -6 0 -11 -3 -10 -7 2
-16 -14 -53 -22 -53 -5 0 -9 -9 -9 -20 0 -11 -5 -20 -11 -20 -5 0 -8 -4 -4 -9
3 -6 -5 -20 -17 -32 -13 -12 -17 -19 -10 -15 6 4 12 2 12 -3 0 -6 -5 -11 -11
-11 -5 0 -7 -4 -4 -10 3 -5 1 -10 -5 -10 -6 0 -8 -4 -5 -10 3 -5 1 -10 -5 -10
-6 0 -9 -4 -5 -9 3 -5 -2 -16 -10 -25 -9 -8 -16 -19 -15 -23 0 -4 -5 -21 -11
-38 -7 -16 -11 -33 -10 -37 0 -5 -4 -8 -10 -8 -5 0 -8 -4 -4 -9 3 -5 1 -12 -5
-16 -6 -4 -8 -10 -5 -15 3 -5 -3 -13 -12 -19 -12 -7 -13 -10 -4 -11 10 0 11
-3 2 -14 -7 -8 -14 -25 -16 -37 -3 -13 -9 -25 -15 -27 -6 -2 -8 -8 -4 -13 3
-5 -2 -12 -11 -15 -12 -5 -13 -9 -4 -20 8 -9 8 -14 1 -14 -6 0 -9 -9 -7 -20 2
-11 0 -18 -6 -15 -8 5 -14 -15 -10 -37 0 -5 -4 -8 -10 -8 -5 0 -7 -4 -4 -10 3
-5 0 -10 -7 -10 -9 0 -9 -3 2 -10 11 -7 11 -10 2 -10 -7 0 -11 -4 -7 -9 3 -5
1 -12 -5 -16 -6 -4 -8 -11 -5 -16 4 -5 1 -9 -5 -9 -6 0 -9 -4 -6 -9 4 -5 1
-22 -6 -38 -6 -15 -12 -30 -12 -33 -1 -3 -5 -11 -9 -17 -5 -8 -3 -13 4 -13 10
0 10 -3 1 -12 -7 -7 -12 -22 -12 -35 0 -13 -5 -23 -11 -23 -6 0 -9 -7 -5 -15
3 -8 0 -15 -7 -15 -8 0 -6 -4 3 -10 11 -7 11 -10 2 -10 -7 0 -11 -3 -9 -8 3
-4 -3 -24 -13 -45 -10 -20 -13 -34 -7 -30 7 4 6 -1 -2 -10 -10 -13 -10 -17 -1
-17 9 0 10 -3 1 -13 -6 -8 -8 -17 -4 -20 3 -4 1 -7 -6 -7 -7 0 -10 -4 -6 -9 3
-5 1 -12 -5 -16 -6 -4 -7 -12 -1 -22 6 -11 4 -21 -4 -30 -8 -7 -12 -24 -9 -38
2 -14 0 -25 -5 -25 -6 0 -8 -9 -6 -20 2 -11 0 -20 -4 -20 -4 0 -6 -13 -5 -30
1 -17 -3 -30 -9 -30 -7 0 -5 -5 3 -10 12 -8 12 -10 1 -10 -10 0 -11 -3 -3 -13
9 -10 8 -19 -3 -34 -8 -12 -12 -29 -8 -39 4 -10 2 -15 -3 -11 -5 3 -10 -3 -10
-14 0 -10 5 -19 10 -19 6 0 5 -5 -2 -12 -7 -7 -12 -36 -12 -64 0 -29 -4 -55
-9 -58 -5 -3 -11 -24 -13 -45 -2 -22 0 -37 4 -35 5 3 8 0 8 -5 0 -6 -4 -11 -8
-11 -5 0 -8 -18 -6 -40 1 -22 -2 -40 -7 -40 -6 0 -6 -7 0 -19 6 -10 7 -21 4
-25 -10 -9 -13 -36 -4 -36 4 0 7 -9 7 -20 0 -11 -4 -20 -8 -20 -5 0 -4 -9 2
-19 6 -12 6 -22 1 -25 -5 -3 -8 -19 -7 -36 1 -16 -2 -30 -6 -30 -5 0 -4 -9 2
-19 6 -12 6 -22 1 -26 -5 -3 -8 -27 -5 -54 3 -31 0 -52 -7 -57 -8 -4 -8 -8 0
-13 6 -4 11 -42 12 -86 1 -44 5 -88 11 -97 5 -11 5 -18 -1 -18 -6 0 -6 -11 -1
-30 5 -18 5 -30 -1 -30 -5 0 -9 -5 -9 -11 0 -5 6 -7 13 -3 8 5 8 2 -2 -9 -9
-12 -10 -17 -2 -17 9 0 9 -5 1 -20 -7 -14 -7 -20 0 -20 5 0 10 -5 10 -11 0 -5
-5 -7 -11 -3 -8 5 -8 1 0 -13 6 -11 7 -23 4 -27 -3 -3 0 -6 8 -6 11 0 11 -2
-1 -10 -11 -7 -11 -10 -2 -10 7 0 10 -5 6 -11 -11 -19 -7 -69 8 -87 11 -13 11
-15 -2 -7 -12 7 -13 6 -3 -7 7 -8 10 -18 6 -21 -3 -4 -1 -7 5 -7 7 0 12 -5 12
-11 0 -5 -4 -8 -9 -5 -10 6 -2 -76 8 -84 9 -6 8 -22 -2 -37 -4 -6 -3 -14 3
-18 6 -4 8 -11 5 -16 -4 -5 -1 -9 5 -9 6 0 9 -4 5 -9 -3 -5 -1 -13 5 -16 8 -5
7 -11 -1 -21 -9 -11 -8 -14 2 -14 11 0 11 -2 -1 -10 -8 -5 -10 -10 -4 -10 7 0
14 -9 17 -20 3 -11 0 -20 -5 -20 -7 0 -6 -5 1 -14 6 -7 9 -21 5 -30 -3 -9 -1
-16 5 -16 6 0 9 -15 7 -34 -1 -20 2 -32 7 -29 5 3 6 -4 2 -16 -4 -13 -2 -21 5
-21 7 0 10 -6 7 -14 -3 -7 0 -19 6 -26 9 -10 9 -11 -1 -5 -11 6 -12 3 -3 -14
7 -12 9 -26 6 -31 -3 -6 -1 -10 5 -10 6 0 8 -5 5 -10 -3 -5 -1 -10 5 -10 6 0
8 -4 5 -10 -3 -5 0 -10 7 -10 9 0 9 -3 -2 -10 -10 -6 -11 -10 -2 -10 6 0 11
-3 11 -7 -1 -5 0 -10 1 -13 1 -3 3 -18 6 -35 2 -16 4 -36 5 -42 1 -7 7 -13 12
-13 6 0 7 -3 4 -7 -4 -3 -1 -13 6 -21 10 -13 9 -14 -3 -7 -13 8 -13 7 -1 -8 7
-9 11 -17 7 -17 -4 0 1 -11 10 -25 8 -13 13 -29 10 -34 -4 -5 -2 -12 4 -16 6
-4 8 -11 5 -16 -4 -5 -2 -9 2 -9 5 0 10 -8 11 -17 6 -53 24 -103 34 -97 6 4 5
-4 -2 -16 -7 -12 -8 -20 -2 -17 8 6 38 -68 34 -85 -1 -5 2 -8 6 -8 4 0 9 -10
9 -22 1 -13 7 -24 13 -26 5 -2 10 -12 10 -22 0 -10 5 -22 11 -25 6 -4 8 -13 5
-21 -3 -8 -1 -14 5 -14 6 0 8 -4 4 -9 -3 -5 -1 -12 5 -16 5 -3 10 -15 10 -26
0 -10 5 -19 11 -19 5 0 8 -4 5 -9 -3 -5 1 -14 9 -21 8 -7 15 -21 15 -32 0 -11
7 -26 15 -35 8 -8 13 -19 10 -24 -4 -5 -1 -9 5 -9 6 0 8 -4 5 -10 -3 -5 -1
-10 5 -10 6 0 8 -4 5 -10 -3 -5 -1 -10 5 -10 6 0 8 -5 5 -10 -3 -6 0 -13 9
-16 8 -3 12 -12 10 -19 -3 -7 0 -16 5 -20 6 -3 9 -11 6 -16 -4 -5 -1 -9 4 -9
6 0 11 -7 11 -16 0 -9 5 -12 12 -8 7 4 8 3 4 -5 -4 -6 0 -24 10 -39 10 -15 19
-31 19 -35 0 -5 9 -15 19 -23 14 -10 16 -14 5 -14 -12 0 -12 -2 1 -10 8 -5 11
-10 6 -10 -6 0 -2 -6 8 -13 9 -7 18 -22 19 -35 0 -12 7 -22 14 -22 7 0 12 -3
11 -7 -3 -16 25 -62 35 -56 6 3 7 1 3 -5 -3 -6 -2 -13 4 -17 6 -4 8 -11 5 -16
-4 -5 1 -12 9 -15 9 -3 16 -13 16 -21 0 -7 11 -26 24 -40 13 -14 32 -43 42
-64 9 -22 21 -39 26 -39 4 0 8 -6 8 -14 0 -8 7 -17 16 -20 8 -3 12 -10 9 -16
-3 -5 -1 -10 4 -10 6 0 11 -6 11 -14 0 -8 7 -17 16 -20 9 -4 14 -9 11 -12 -9
-10 35 -54 47 -47 6 4 5 0 -2 -9 -15 -18 0 -34 20 -22 6 4 8 3 4 -4 -3 -6 1
-17 9 -25 8 -9 15 -18 15 -21 0 -3 8 -15 18 -25 28 -31 39 -46 51 -69 7 -13
17 -19 23 -16 7 4 8 3 4 -5 -4 -6 0 -14 8 -17 9 -3 13 -10 10 -15 -3 -5 2 -12
10 -15 9 -3 16 -13 16 -22 0 -8 3 -13 6 -9 6 6 34 -16 34 -27 0 -4 11 -19 24
-34 56 -63 76 -87 76 -94 0 -5 5 -8 11 -8 7 0 26 -16 45 -35 18 -19 31 -35 28
-35 -3 0 1 -6 8 -14 7 -8 17 -11 22 -8 5 3 6 0 2 -6 -7 -12 32 -44 45 -37 4 3
5 -4 2 -15 -3 -11 0 -20 5 -20 6 0 25 -13 42 -30 16 -16 30 -26 30 -23 0 4 11
-8 25 -27 14 -19 25 -30 25 -24 0 5 5 1 11 -9 6 -9 15 -14 21 -11 6 4 9 3 6
-2 -3 -5 10 -24 28 -42 19 -18 34 -30 34 -28 0 5 31 -22 82 -72 16 -15 28 -23
28 -17 0 5 7 -1 16 -13 8 -12 22 -22 30 -22 8 0 12 -4 9 -10 -3 -5 -2 -10 3
-10 5 0 21 -12 36 -27 14 -14 29 -24 32 -21 3 3 24 -13 46 -36 22 -22 37 -34
32 -26 -5 9 -1 7 9 -3 9 -11 17 -16 17 -12 0 4 9 -4 21 -19 11 -14 27 -26 35
-26 8 0 12 -4 9 -10 -3 -6 1 -7 9 -4 10 4 16 1 16 -7 0 -7 3 -10 6 -7 3 3 19
-7 37 -23 17 -16 40 -32 51 -35 11 -4 26 -12 33 -18 33 -29 41 -34 47 -29 3 4
6 1 6 -5 0 -7 7 -12 15 -12 8 0 15 -5 15 -11 0 -5 4 -8 9 -4 6 3 13 -1 18 -8
10 -17 53 -41 53 -30 0 4 5 0 11 -9 5 -10 17 -18 24 -18 8 0 15 -5 15 -11 0
-5 5 -7 10 -4 6 3 10 1 10 -4 0 -6 3 -10 8 -10 20 3 32 -2 32 -15 0 -11 28
-23 72 -30 3 -1 10 -5 15 -10 5 -5 2 -6 -6 -1 -10 6 -12 4 -7 -4 5 -7 14 -10
22 -7 8 3 14 1 14 -5 0 -6 5 -7 10 -4 6 3 10 1 10 -4 0 -6 7 -11 15 -11 8 0
15 -5 15 -11 0 -5 4 -8 9 -4 5 3 16 -2 24 -10 9 -8 22 -15 31 -15 8 0 18 -4
21 -10 3 -5 15 -10 25 -10 10 0 20 -5 22 -10 2 -6 13 -12 26 -13 12 0 22 -4
22 -7 0 -6 63 -35 68 -32 1 2 10 -4 18 -13 9 -8 20 -13 25 -10 5 4 9 2 9 -3 0
-4 22 -14 50 -22 27 -7 47 -16 45 -20 -2 -3 6 -7 17 -7 12 -1 24 -6 27 -11 3
-5 14 -8 24 -6 9 1 24 -4 31 -12 8 -8 26 -14 40 -14 14 0 26 -4 26 -10 0 -5 9
-10 20 -10 11 0 20 -6 20 -12 0 -9 4 -8 10 2 8 12 10 12 10 1 0 -8 3 -11 7 -8
3 4 12 2 19 -4 8 -6 21 -9 29 -5 8 3 15 2 15 -2 0 -4 11 -12 25 -19 14 -6 23
-7 19 -2 -3 5 2 6 10 3 9 -3 16 -10 16 -15 0 -5 5 -9 11 -9 5 0 7 5 3 11 -3 6
6 3 22 -7 17 -12 25 -14 20 -6 -7 12 -4 12 15 1 13 -7 28 -12 33 -11 4 2 13
-2 20 -7 6 -5 23 -12 38 -15 14 -2 36 -9 47 -16 12 -6 21 -8 21 -4 0 3 6 2 13
-5 10 -7 17 -7 24 0 8 8 13 8 17 0 4 -6 16 -11 27 -11 10 0 19 -4 19 -10 0 -5
6 -7 14 -4 8 3 17 1 20 -4 3 -6 15 -8 25 -5 10 3 22 0 26 -7 5 -8 10 -8 21 1
11 9 14 9 14 -1 0 -8 3 -10 7 -7 3 4 12 2 20 -4 10 -9 13 -8 13 2 0 9 3 10 8
4 7 -10 32 -16 65 -16 9 0 15 -4 13 -8 -3 -4 1 -8 9 -8 8 0 12 5 8 10 -3 5 4
4 16 -2 11 -7 21 -8 21 -4 0 4 5 1 10 -7 8 -12 10 -12 10 -1 0 11 3 11 15 1
12 -10 15 -10 15 1 0 9 3 10 8 4 4 -6 18 -11 32 -13 46 -5 55 -7 69 -16 11 -7
12 -6 6 5 -7 11 -6 12 6 3 21 -16 59 -24 59 -12 0 6 6 5 15 -2 12 -10 15 -10
15 1 0 11 2 11 10 -1 5 -8 10 -11 10 -6 0 5 7 3 15 -4 12 -10 15 -10 15 1 0
11 2 11 10 -1 8 -12 10 -12 10 -1 0 11 3 11 15 1 12 -10 15 -10 15 1 0 12 2
12 9 0 6 -9 10 -10 16 -2 5 9 11 9 23 -1 13 -11 15 -11 8 2 -7 13 -6 13 6 0
13 -16 68 -22 68 -8 0 4 5 8 11 8 5 0 8 -4 5 -8 -3 -5 1 -9 9 -9 8 0 15 4 15
9 0 4 5 8 11 8 5 0 7 -4 4 -10 -3 -5 0 -7 9 -4 8 3 24 1 35 -6 15 -7 21 -7 21
0 0 7 6 8 19 1 10 -6 21 -7 25 -4 10 10 36 12 36 4 0 -5 26 -9 58 -11 110 -5
154 -2 164 12 8 10 11 10 15 0 4 -10 8 -10 21 0 13 11 14 11 7 -2 -8 -13 -7
-13 8 -1 9 7 17 9 17 4 0 -5 9 -9 19 -9 11 0 17 4 14 9 -3 5 4 6 16 2 11 -3
21 -3 21 2 0 10 91 10 108 -1 6 -4 12 -3 12 3 0 5 9 8 20 6 11 -2 20 1 20 7 0
7 6 6 15 -2 12 -10 15 -10 15 1 0 12 2 12 9 0 6 -9 10 -10 16 -2 5 9 10 9 21
0 9 -7 14 -7 14 -1 0 5 20 9 45 9 25 -1 45 3 45 8 0 6 5 3 10 -5 5 -8 10 -10
10 -4 0 6 10 10 23 10 12 -1 30 4 40 12 14 13 17 13 17 1 0 -12 2 -12 9 0 6 9
11 10 15 2 5 -8 13 -8 27 -1 10 6 19 8 19 4 0 -3 7 -1 15 6 11 9 15 9 15 1 0
-9 5 -9 20 -1 11 6 25 8 30 5 6 -3 10 -2 10 3 0 6 9 8 21 5 12 -4 25 0 29 8 6
8 24 12 49 11 23 -2 41 2 41 8 0 5 5 10 11 10 5 0 7 -6 3 -12 -6 -10 -4 -10 7
0 7 6 23 12 36 12 13 0 23 5 23 10 0 6 5 10 11 10 5 0 7 -5 3 -12 -5 -7 -3 -8
7 -2 8 5 25 10 39 12 13 2 30 8 37 14 10 8 13 7 13 -3 0 -10 3 -10 8 -3 4 6
15 10 25 8 9 -1 17 2 17 7 0 5 3 8 8 8 18 -3 33 2 28 9 -3 5 1 9 9 9 8 0 12
-5 8 -10 -3 -5 4 -4 14 2 11 6 23 7 27 4 3 -3 6 -1 6 5 0 7 3 11 8 11 18 -3
33 2 28 9 -3 5 1 9 9 9 8 0 15 -5 15 -11 0 -6 4 -5 9 2 4 8 12 14 17 13 19 -1
54 11 54 19 0 4 10 6 23 5 13 -2 40 5 60 15 20 10 34 14 31 8 -4 -5 5 -2 19 7
15 9 31 14 37 10 5 -3 13 1 16 9 3 9 10 13 15 11 5 -3 21 1 37 9 16 8 32 12
36 9 3 -4 6 -1 6 5 0 6 7 9 17 5 12 -5 14 -3 8 7 -6 10 -4 12 8 7 10 -3 17 -2
17 3 0 6 6 9 13 8 6 -2 11 2 10 7 -1 6 8 11 20 11 31 3 48 8 83 27 17 9 34 13
38 10 3 -4 6 -1 6 5 0 7 7 12 16 12 9 0 12 5 8 12 -4 7 -3 8 4 4 6 -4 26 1 44
11 18 9 36 16 41 15 4 -1 7 3 7 9 0 5 5 7 10 4 6 -3 10 -1 10 5 0 7 6 10 14 7
8 -3 20 1 26 8 7 8 16 12 21 9 5 -3 9 0 9 5 0 6 9 11 19 11 11 0 23 5 26 10 4
6 21 17 38 25 44 20 113 60 133 76 10 8 18 12 18 10 1 -2 16 5 33 16 18 11 30
23 25 27 -4 4 -2 6 3 4 17 -5 75 24 68 35 -3 5 -1 7 5 3 6 -3 18 1 26 10 9 8
16 12 16 7 0 -4 7 1 15 11 8 11 15 16 15 12 0 -4 7 0 16 8 8 9 20 14 25 10 5
-3 8 0 7 8 -2 7 4 13 12 13 8 0 27 13 43 28 15 15 27 24 27 20 0 -4 4 -3 8 2
4 6 27 24 52 40 25 16 52 38 61 47 9 10 18 16 20 13 3 -2 22 11 43 30 22 19
43 32 47 29 5 -3 9 2 9 10 0 9 7 16 16 16 8 0 12 5 9 10 -3 6 0 10 8 10 7 0
28 16 45 36 17 19 36 33 42 29 5 -3 10 1 10 9 0 9 4 16 8 16 5 0 20 9 33 21
13 11 36 30 51 42 15 12 28 28 28 35 0 7 3 11 8 8 4 -2 16 2 27 10 10 8 16 14
12 14 -3 0 16 21 43 46 27 26 47 51 43 57 -3 6 -1 7 5 3 11 -7 82 60 82 77 0
4 5 7 10 7 13 0 76 71 73 81 -2 5 5 5 14 2 10 -4 14 -2 10 4 -3 5 5 16 19 23
13 8 23 18 21 23 -1 5 14 26 34 46 20 20 37 40 38 44 0 5 12 18 26 29 14 11
24 22 22 24 -2 3 15 24 38 47 23 23 39 49 37 56 -3 8 0 11 7 7 6 -4 11 -3 11
3 0 5 6 16 13 23 7 7 28 33 47 58 19 25 38 47 42 48 5 2 8 10 8 18 0 8 7 17
15 20 8 4 13 10 10 14 -3 5 3 13 12 19 10 6 14 11 10 11 -5 0 3 14 17 31 14
17 23 36 19 42 -3 7 -3 9 2 5 8 -8 51 51 47 65 -1 4 2 7 7 7 5 0 16 12 26 26
12 18 13 24 4 19 -8 -3 -6 0 3 7 9 8 18 20 20 27 2 8 13 24 26 37 12 13 22 30
22 39 0 8 5 15 11 15 5 0 8 4 5 9 -3 5 1 11 9 15 8 3 15 18 15 32 0 15 3 24 6
21 4 -4 16 13 27 36 12 23 25 45 30 48 5 3 8 9 8 13 -1 9 33 80 42 87 4 3 9
15 10 27 0 11 4 19 7 17 3 -2 12 5 19 17 7 11 8 17 2 14 -7 -4 -8 -1 -5 8 3 9
10 16 16 16 5 0 6 5 3 10 -3 6 -2 10 2 10 9 0 39 69 35 83 -1 4 3 7 10 7 6 0
8 3 5 7 -4 3 -2 12 4 20 6 7 8 13 3 13 -5 0 -2 5 6 10 8 5 15 13 16 17 5 36
18 73 26 73 5 0 6 5 3 10 -3 6 -2 10 2 10 5 0 9 10 10 22 1 11 8 25 15 29 7 5
10 9 6 9 -10 0 22 73 36 82 8 6 7 8 -1 8 -7 0 -13 5 -13 12 0 6 3 8 7 5 7 -8
31 51 39 98 3 17 10 36 16 42 6 7 8 20 4 28 -3 8 -1 15 4 15 6 0 10 7 10 15 0
8 6 15 13 15 8 0 7 4 -3 10 -12 8 -12 10 -1 10 8 0 11 3 8 7 -4 3 -1 13 6 21
10 13 9 14 -1 8 -10 -6 -10 -2 0 21 6 15 15 33 19 38 5 6 10 32 12 58 2 26 8
51 12 55 5 4 5 1 0 -7 -5 -9 -4 -12 3 -8 5 4 8 16 5 27 -3 13 0 20 8 20 11 0
11 2 -1 10 -8 5 -10 10 -5 10 10 0 15 17 18 63 1 9 4 17 8 17 3 0 5 14 4 30
-1 17 3 34 8 37 6 4 7 1 2 -7 -5 -9 -4 -11 3 -6 9 5 9 13 1 28 -8 16 -8 19 1
13 9 -5 11 2 7 29 -3 23 -1 34 5 30 6 -4 8 -1 6 7 -3 8 -1 22 4 31 6 12 5 18
-3 18 -8 0 -8 4 1 15 6 8 9 19 5 25 -3 5 -1 10 5 10 7 0 10 6 7 13 -2 6 0 20
5 30 5 11 5 17 -1 17 -6 0 -8 7 -5 15 4 8 9 13 13 11 4 -3 7 6 7 19 0 13 -4
22 -8 19 -9 -6 1 26 15 43 6 9 5 13 -4 13 -9 0 -10 3 -3 8 13 9 26 54 13 46
-5 -3 -9 0 -9 5 0 6 4 11 10 11 6 0 6 9 0 25 -6 15 -6 26 1 30 5 4 7 11 4 16
-4 5 -2 9 4 9 6 0 6 11 1 30 -5 19 -5 30 1 30 6 0 6 7 -1 19 -6 11 -6 22 -1
25 5 3 11 17 13 31 3 13 1 22 -3 19 -5 -3 -5 6 1 20 7 19 6 26 -3 26 -8 0 -7
4 3 10 13 9 13 10 0 10 -12 0 -13 2 -1 9 11 7 11 9 0 14 -9 4 -10 6 -2 6 7 1
10 8 7 16 -4 8 0 23 7 32 10 12 10 15 2 9 -7 -4 -13 -2 -13 3 0 6 5 11 11 11
8 0 9 4 0 13 -6 8 -8 16 -5 20 11 10 10 67 0 70 -7 3 -7 9 2 19 10 13 10 17 0
21 -10 4 -10 6 1 6 11 1 11 4 1 16 -9 11 -9 15 -1 15 8 0 9 5 2 18 -7 13 -6
23 1 30 9 9 9 12 -1 12 -10 0 -11 3 -3 13 7 8 7 18 2 27 -5 9 -5 19 2 27 8 10
7 13 -3 13 -10 0 -10 3 -1 12 8 8 8 17 1 30 -6 10 -11 64 -12 118 -1 55 -6
100 -11 100 -4 0 -4 6 2 13 7 8 7 18 2 27 -6 8 -10 47 -10 87 0 39 -4 74 -9
77 -5 3 -8 28 -8 55 1 27 -1 47 -5 45 -4 -3 -6 9 -4 25 2 17 0 31 -5 31 -4 0
-6 9 -4 19 2 11 -3 25 -10 31 -10 8 -12 17 -5 29 5 10 5 23 0 31 -5 8 -7 17
-4 21 2 4 -1 11 -7 15 -8 5 -8 8 1 14 9 5 8 11 -2 21 -13 13 -14 21 -20 82 -1
15 -7 27 -13 27 -5 0 -3 5 5 10 9 6 11 10 3 10 -7 0 -10 7 -6 17 4 11 3 14 -5
9 -8 -5 -10 -2 -6 8 4 10 1 16 -7 16 -9 0 -10 3 -2 11 8 8 7 20 -3 44 -7 18
-10 35 -7 39 4 3 2 6 -4 6 -6 0 -11 11 -12 25 -3 49 -4 55 -14 55 -6 0 -7 3
-4 7 4 3 1 16 -6 27 -7 12 -12 31 -11 44 1 12 -2 22 -7 22 -5 0 -6 7 -3 15 4
8 1 15 -6 15 -7 0 -10 8 -7 20 3 11 0 26 -6 33 -12 13 -18 29 -20 59 -1 10 -6
18 -11 18 -5 0 -7 3 -4 6 4 3 0 17 -7 31 -8 15 -12 30 -9 35 3 4 0 8 -5 8 -6
0 -10 3 -10 8 3 20 -2 32 -13 26 -7 -4 -8 -3 -4 5 4 6 2 19 -6 28 -9 12 -9 15
-1 9 9 -5 11 -2 7 8 -3 9 -11 16 -16 16 -6 0 -7 7 -4 15 3 9 -1 18 -10 22 -13
5 -13 7 -2 14 10 7 11 9 0 9 -7 0 -10 5 -7 10 3 6 1 10 -5 10 -7 0 -10 6 -7
13 2 6 -5 23 -17 36 -11 13 -14 20 -6 16 13 -8 13 -7 1 8 -7 9 -10 17 -6 17 5
0 -1 8 -11 18 -17 15 -22 29 -26 69 -1 7 -5 10 -9 7 -11 -6 -22 33 -13 47 4 8
3 9 -4 5 -7 -4 -12 -1 -12 8 0 9 -5 16 -11 16 -5 0 -7 5 -4 10 3 6 1 10 -5 10
-6 0 -9 4 -5 9 3 5 1 12 -5 16 -5 3 -10 15 -10 26 0 10 -5 19 -12 19 -6 0 -8
3 -5 6 4 4 -7 25 -23 47 -17 23 -30 49 -30 58 0 9 -7 20 -16 23 -8 3 -13 10
-10 15 3 5 -3 20 -14 33 -11 14 -16 28 -13 32 3 3 1 6 -5 6 -7 0 -12 7 -12 15
0 8 -4 15 -9 15 -8 0 -24 37 -22 53 1 4 -6 7 -15 7 -8 0 -13 4 -10 9 3 5 -4
20 -15 35 -11 14 -17 26 -13 26 4 0 -3 8 -14 19 -12 10 -19 21 -15 25 3 3 0 6
-7 6 -7 0 -11 3 -7 6 6 6 -1 17 -35 54 -9 10 -14 21 -11 24 3 3 -6 15 -21 27
-14 11 -24 24 -21 29 3 5 -3 13 -12 19 -10 6 -15 11 -11 11 4 0 -4 12 -17 26
-13 14 -30 39 -37 55 -7 16 -19 29 -26 29 -7 0 -11 4 -8 8 3 5 -4 14 -14 22
-10 8 -17 17 -14 21 2 4 -5 14 -16 22 -11 7 -17 17 -13 20 3 4 1 7 -5 7 -7 0
-12 7 -12 16 0 8 -3 13 -7 11 -5 -3 -14 1 -21 9 -7 8 -10 14 -7 14 7 0 -7 17
-62 76 -24 25 -43 50 -43 55 0 5 -4 9 -10 9 -5 0 -10 7 -10 15 0 8 -4 15 -9
15 -12 0 -71 59 -71 71 0 5 -6 9 -14 9 -8 0 -18 5 -22 12 -5 7 -2 9 7 4 8 -4
0 6 -18 22 -17 17 -29 33 -26 36 4 3 -1 6 -10 6 -9 0 -17 7 -17 17 0 9 -2 14
-5 11 -7 -7 -115 101 -115 115 0 6 -3 8 -6 4 -3 -3 -18 5 -32 19 -15 13 -30
24 -34 24 -5 0 -8 7 -8 15 0 8 -5 15 -10 15 -6 0 -31 20 -55 44 -25 24 -47 41
-50 38 -3 -3 -5 0 -5 6 0 7 -7 12 -16 12 -8 0 -13 4 -9 9 3 5 -4 12 -15 16
-11 3 -20 11 -20 16 0 6 -3 8 -7 6 -10 -6 -34 19 -26 27 4 3 -1 6 -10 6 -9 0
-17 3 -17 8 0 4 -17 18 -38 32 -20 14 -44 33 -53 42 -9 10 -21 18 -28 18 -6 0
-11 5 -11 10 0 6 -7 10 -15 10 -8 0 -15 5 -15 10 0 6 -6 10 -13 10 -7 0 -18 9
-25 20 -7 11 -19 20 -27 20 -8 0 -15 5 -15 10 0 6 -7 10 -15 10 -8 0 -15 4
-15 8 0 5 -20 19 -45 32 -25 13 -45 27 -45 32 0 4 -10 8 -22 8 -12 0 -19 3
-15 6 9 10 -16 32 -30 27 -7 -3 -13 -1 -13 5 0 5 -13 15 -30 22 -16 7 -30 17
-30 22 0 5 -4 6 -10 3 -5 -3 -10 -1 -10 4 0 6 -7 11 -15 11 -8 0 -15 5 -15 11
0 5 -5 7 -10 4 -6 -3 -13 1 -16 9 -3 9 -10 13 -15 10 -5 -3 -9 0 -9 6 0 6 -4
9 -9 5 -5 -3 -16 3 -23 12 -7 10 -22 19 -33 21 -11 2 -24 9 -30 16 -5 7 -18
12 -27 10 -11 -1 -18 4 -18 14 0 8 -3 12 -7 9 -3 -4 -13 -1 -21 6 -13 10 -14
9 -7 -2 5 -10 4 -12 -3 -7 -7 4 -12 15 -12 24 0 14 -2 14 -9 3 -7 -11 -10 -10
-18 3 -5 10 -18 19 -29 21 -10 2 -21 4 -24 5 -3 1 -8 2 -12 1 -5 0 -8 3 -8 9
0 5 -9 10 -19 10 -11 0 -23 5 -27 12 -5 7 -2 8 7 3 8 -5 11 -4 6 1 -5 5 -14 9
-20 9 -26 2 -73 19 -86 32 -7 8 -20 12 -28 9 -7 -3 -16 1 -19 9 -4 8 -10 12
-15 9 -5 -3 -9 0 -9 6 0 6 -4 8 -10 5 -5 -3 -10 -2 -10 3 0 5 -9 12 -20 15
-13 3 -18 1 -13 -6 3 -7 -3 -4 -14 6 -11 10 -29 19 -41 22 -11 2 -34 11 -51
19 -17 9 -31 13 -31 9 0 -5 -4 -2 -8 4 -4 7 -17 14 -27 16 -11 1 -26 7 -34 11
-10 7 -12 5 -7 -5 4 -8 1 -6 -7 4 -9 10 -21 15 -31 11 -9 -4 -16 -1 -16 6 0 7
-7 10 -16 6 -10 -4 -13 -2 -8 6 5 8 2 9 -9 5 -10 -4 -17 -1 -17 6 0 9 -3 8 -9
-1 -7 -11 -9 -11 -14 2 -4 9 -14 13 -27 11 -11 -2 -20 1 -20 6 0 6 -4 7 -10 4
-5 -3 -10 -1 -10 5 0 6 -5 8 -11 5 -5 -4 -19 1 -30 11 -13 12 -19 13 -19 4 0
-9 -3 -10 -13 -1 -8 6 -17 8 -20 4 -4 -3 -7 -1 -7 6 0 7 -4 10 -9 6 -5 -3 -13
-1 -16 5 -5 8 -11 8 -20 0 -9 -8 -17 -6 -29 5 -9 9 -16 13 -16 9 0 -3 -7 -1
-15 6 -12 10 -15 10 -15 -1 -1 -11 -3 -10 -10 1 -5 9 -21 16 -37 15 -15 0 -34
6 -41 15 -8 8 -11 9 -7 3 3 -7 2 -13 -2 -13 -5 0 -15 6 -22 13 -11 10 -13 9
-7 -3 7 -13 6 -13 -6 0 -7 8 -25 15 -40 14 -16 -1 -28 2 -28 5 0 3 -11 7 -25
9 -14 1 -36 3 -50 5 -14 1 -25 6 -25 11 0 5 -3 6 -7 3 -3 -4 -12 -2 -20 4 -10
9 -13 8 -13 -1 0 -10 -3 -10 -15 0 -8 7 -15 9 -15 5 0 -4 -6 -3 -13 4 -10 8
-17 7 -25 -1 -9 -9 -12 -9 -12 1 0 11 -3 11 -15 1 -9 -8 -15 -8 -15 -2 0 6 -8
11 -17 11 -54 2 -73 6 -73 14 0 4 -4 5 -10 2 -5 -3 -10 0 -10 7 0 10 -2 10 -9
-1 -5 -7 -11 -9 -14 -4 -4 5 -20 8 -37 5 -16 -2 -37 1 -45 8 -9 8 -15 8 -15 2
0 -7 -10 -8 -30 -2 -19 5 -30 5 -30 -1 0 -6 -5 -7 -12 -3 -7 4 -30 10 -53 13
-73 9 -813 12 -819 3z"/>
</g>
</svg>
